<?xml version="1.0" encoding="UTF-8" standalone="no"?>
<svg
   xmlns:dc="http://purl.org/dc/elements/1.1/"
   xmlns:cc="http://creativecommons.org/ns#"
   xmlns:rdf="http://www.w3.org/1999/02/22-rdf-syntax-ns#"
   xmlns:svg="http://www.w3.org/2000/svg"
   xmlns="http://www.w3.org/2000/svg"
   xmlns:sodipodi="http://sodipodi.sourceforge.net/DTD/sodipodi-0.dtd"
   xmlns:inkscape="http://www.inkscape.org/namespaces/inkscape"
   width="512"
   height="512"
   viewBox="0 0 135.46666 135.46667"
   version="1.1"
   id="svg8"
   inkscape:version="1.0beta1 (32d4812, 2019-09-19)"
   sodipodi:docname="logo-dark.svg"
   inkscape:export-filename="/Users/ThePocketCalculator/Desktop/logo-square.png"
   inkscape:export-xdpi="96"
   inkscape:export-ydpi="96">
  <defs
     id="defs2" />
  <sodipodi:namedview
     id="base"
     pagecolor="#ffffff"
     bordercolor="#666666"
     borderopacity="1.0"
     inkscape:pageopacity="0.0"
     inkscape:pageshadow="2"
     inkscape:zoom="1.2740846"
     inkscape:cx="157.47479"
     inkscape:cy="308.69731"
     inkscape:document-units="px"
     inkscape:current-layer="layer1"
     inkscape:document-rotation="0"
     showgrid="true"
     units="px"
     showguides="false"
     inkscape:window-width="1680"
     inkscape:window-height="1050"
     inkscape:window-x="0"
     inkscape:window-y="0"
     inkscape:window-maximized="0">
    <inkscape:grid
       type="xygrid"
       id="grid833"
       empspacing="8" />
  </sodipodi:namedview>
  <metadata
     id="metadata5">
    <rdf:RDF>
      <cc:Work
         rdf:about="">
        <dc:format>image/svg+xml</dc:format>
        <dc:type
           rdf:resource="http://purl.org/dc/dcmitype/StillImage" />
        <dc:title></dc:title>
      </cc:Work>
    </rdf:RDF>
  </metadata>
  <g
     inkscape:label="Layer 1"
     inkscape:groupmode="layer"
     id="layer1">
    <rect
       y="0"
       x="0"
       height="135.46666"
       width="135.46666"
       id="rect911"
       style="opacity:1;fill:#0d1424;fill-opacity:1;stroke-width:2.11667;stroke-linecap:round;stroke-linejoin:round;stop-opacity:1" />
    <path
       clip-path="none"
       mask="none"
       style="opacity:1;fill:none;fill-opacity:1;stroke:#ff88a8;stroke-width:2.08051;stroke-linecap:round;stroke-linejoin:round;stroke-miterlimit:4;stroke-dasharray:none;stroke-opacity:1;stop-opacity:1"
       d="m 47.348568,50.073694 h 5.096192 l 2.548094,-10.192382 2.548097,16.987304 5.09619,-37.372068 5.096191,57.756831 5.096192,-47.564448 2.548094,27.179685 2.548097,-13.589843 2.548095,6.794921 h 7.644286"
       id="path837"
       inkscape:connector-curvature="0"
       sodipodi:nodetypes="ccccccccccc" />
    <g
       clip-path="none"
       mask="none"
       transform="matrix(0.80254977,0,0,0.80254977,13.373962,9.3041663)"
       aria-label="CRISIS MANUAL"
       id="text841"
       style="font-style:normal;font-variant:normal;font-weight:500;font-stretch:normal;font-size:12.69999999999999929px;line-height:1;font-family:Roboto;-inkscape-font-specification:'Roboto Medium';font-variant-ligatures:normal;font-variant-caps:normal;font-variant-numeric:normal;font-variant-east-asian:normal;text-align:center;text-anchor:middle;opacity:1;fill:#c8d6e7;fill-opacity:1;stroke:none;stroke-width:0.264583;stop-opacity:1">
      <path
         inkscape:connector-curvature="0"
         d="m 47.095801,102.46601 q -0.07235,1.57096 -0.847495,2.78019 -0.775148,1.1989 -2.180749,1.86036 -1.395266,0.66146 -3.193609,0.66146 -2.966232,0 -4.671557,-1.93271 -1.705325,-1.9327 -1.705325,-5.45704 v -0.744138 q 0,-2.211754 0.764813,-3.865403 0.775148,-1.663984 2.22209,-2.563155 1.446942,-0.909507 3.348638,-0.909507 2.738855,0 4.402839,1.446943 1.663984,1.436607 1.891361,3.968756 h -3.617356 q -0.04134,-1.374595 -0.692466,-1.974043 -0.651124,-0.599447 -1.984378,-0.599447 -1.353925,0 -1.984378,1.012859 -0.630454,1.01286 -0.661459,3.23495 v 1.064535 q 0,2.40813 0.599447,3.44166 0.609783,1.03353 2.087731,1.03353 1.250572,0 1.912031,-0.58911 0.66146,-0.58912 0.702801,-1.87069 z"
         style="font-style:normal;font-variant:normal;font-weight:900;font-stretch:normal;font-size:21.16669999999999874px;font-family:Roboto;-inkscape-font-specification:'Roboto Heavy';font-variant-ligatures:normal;font-variant-caps:normal;font-variant-numeric:normal;font-variant-east-asian:normal;text-align:center;text-anchor:middle;fill:#c8d6e7;fill-opacity:1;stroke-width:0.264583"
         id="path846" />
      <path
         inkscape:connector-curvature="0"
         style="font-style:normal;font-variant:normal;font-weight:900;font-stretch:normal;font-size:21.16669999999999874px;font-family:Roboto;-inkscape-font-specification:'Roboto Heavy';font-variant-ligatures:normal;font-variant-caps:normal;font-variant-numeric:normal;font-variant-east-asian:normal;text-align:center;text-anchor:middle;fill:#c8d6e7;fill-opacity:1;stroke-width:0.264583"
         d="m 54.40286,102.24896 h -1.963708 v 5.31235 H 48.811461 V 92.513109 h 5.922128 q 2.676844,0 4.185798,1.18856 1.508954,1.188559 1.508954,3.358973 0,1.570966 -0.640789,2.604496 -0.630453,1.033532 -1.984378,1.674322 l 3.141932,6.06682 v 0.15503 h -3.886074 z"
         id="path848" />
      <path
         inkscape:connector-curvature="0"
         d="M 66.484829,107.56131 H 62.867473 V 92.513109 h 3.617356 z"
         style="font-style:normal;font-variant:normal;font-weight:900;font-stretch:normal;font-size:21.16669999999999874px;font-family:Roboto;-inkscape-font-specification:'Roboto Heavy';font-variant-ligatures:normal;font-variant-caps:normal;font-variant-numeric:normal;font-variant-east-asian:normal;text-align:center;text-anchor:middle;fill:#c8d6e7;fill-opacity:1;stroke-width:0.264583"
         id="path850" />
      <path
         inkscape:connector-curvature="0"
         d="m 76.789125,103.56155 q 0,-0.79582 -0.568442,-1.24024 -0.558106,-0.44442 -1.974042,-0.91984 -1.415937,-0.47542 -2.315108,-0.91984 -2.924891,-1.43661 -2.924891,-3.948088 0,-1.250572 0.723471,-2.20142 0.733807,-0.961183 2.067061,-1.488284 1.333254,-0.537435 2.997238,-0.537435 1.622642,0 2.90422,0.578777 1.291913,0.578777 2.005048,1.653648 0.713136,1.064536 0.713136,2.439132 H 76.79946 q 0,-0.919842 -0.568441,-1.426272 -0.558107,-0.50643 -1.51929,-0.50643 -0.971518,0 -1.53996,0.434083 -0.558106,0.423747 -0.558106,1.085207 0,0.578776 0.620118,1.0542 0.620118,0.465089 2.180749,0.971519 1.56063,0.496094 2.563155,1.074871 2.439131,1.405602 2.439131,3.875742 0,1.97404 -1.488283,3.10059 -1.488284,1.12655 -4.082445,1.12655 -1.829349,0 -3.317632,-0.65113 -1.477948,-0.66146 -2.232426,-1.79834 -0.744141,-1.14722 -0.744141,-2.6355 h 3.638026 q 0,1.20923 0.620118,1.788 0.630454,0.56845 2.036055,0.56845 0.899171,0 1.415937,-0.38241 0.5271,-0.39274 0.5271,-1.09554 z"
         style="font-style:normal;font-variant:normal;font-weight:900;font-stretch:normal;font-size:21.16669999999999874px;font-family:Roboto;-inkscape-font-specification:'Roboto Heavy';font-variant-ligatures:normal;font-variant-caps:normal;font-variant-numeric:normal;font-variant-east-asian:normal;text-align:center;text-anchor:middle;fill:#c8d6e7;fill-opacity:1;stroke-width:0.264583"
         id="path852" />
      <path
         inkscape:connector-curvature="0"
         d="M 86.163247,107.56131 H 82.545891 V 92.513109 h 3.617356 z"
         style="font-style:normal;font-variant:normal;font-weight:900;font-stretch:normal;font-size:21.16669999999999874px;font-family:Roboto;-inkscape-font-specification:'Roboto Heavy';font-variant-ligatures:normal;font-variant-caps:normal;font-variant-numeric:normal;font-variant-east-asian:normal;text-align:center;text-anchor:middle;fill:#c8d6e7;fill-opacity:1;stroke-width:0.264583"
         id="path854" />
      <path
         inkscape:connector-curvature="0"
         d="m 96.467542,103.56155 q 0,-0.79582 -0.568441,-1.24024 -0.558107,-0.44442 -1.974043,-0.91984 -1.415937,-0.47542 -2.315108,-0.91984 -2.924891,-1.43661 -2.924891,-3.948088 0,-1.250572 0.723471,-2.20142 0.733807,-0.961183 2.067061,-1.488284 1.333254,-0.537435 2.997238,-0.537435 1.622642,0 2.90422,0.578777 1.291913,0.578777 2.005049,1.653648 0.713132,1.064536 0.713132,2.439132 h -3.617352 q 0,-0.919842 -0.568442,-1.426272 -0.558106,-0.50643 -1.51929,-0.50643 -0.971518,0 -1.53996,0.434083 -0.558106,0.423747 -0.558106,1.085207 0,0.578776 0.620118,1.0542 0.620118,0.465089 2.180749,0.971519 1.560631,0.496094 2.563155,1.074871 2.439128,1.405602 2.439128,3.875742 0,1.97404 -1.48828,3.10059 -1.488284,1.12655 -4.082445,1.12655 -1.829348,0 -3.317632,-0.65113 -1.477948,-0.66146 -2.232425,-1.79834 -0.744142,-1.14722 -0.744142,-2.6355 h 3.638026 q 0,1.20923 0.620119,1.788 0.630453,0.56845 2.036054,0.56845 0.899172,0 1.415937,-0.38241 0.5271,-0.39274 0.5271,-1.09554 z"
         style="font-style:normal;font-variant:normal;font-weight:900;font-stretch:normal;font-size:21.16669999999999874px;font-family:Roboto;-inkscape-font-specification:'Roboto Heavy';font-variant-ligatures:normal;font-variant-caps:normal;font-variant-numeric:normal;font-variant-east-asian:normal;text-align:center;text-anchor:middle;fill:#c8d6e7;fill-opacity:1;stroke-width:0.264583"
         id="path856" />
      <path
         inkscape:connector-curvature="0"
         d="m 36.438146,113.51444 3.47265,9.22733 3.464381,-9.22733 h 2.703705 v 12.03852 h -2.083589 v -3.96874 l 0.206705,-5.30819 -3.555331,9.27693 H 39.15012 l -3.547063,-9.26867 0.206705,5.29993 v 3.96874 h -2.08359 v -12.03852 z"
         style="font-style:normal;font-variant:normal;font-weight:500;font-stretch:normal;font-size:16.93329999999999913px;font-family:Roboto;-inkscape-font-specification:'Roboto Medium';font-variant-ligatures:normal;font-variant-caps:normal;font-variant-numeric:normal;font-variant-east-asian:normal;text-align:center;text-anchor:middle;fill:#c8d6e7;fill-opacity:1;stroke-width:0.264583"
         id="path858" />
      <path
         inkscape:connector-curvature="0"
         style="font-style:normal;font-variant:normal;font-weight:500;font-stretch:normal;font-size:16.93329999999999913px;font-family:Roboto;-inkscape-font-specification:'Roboto Medium';font-variant-ligatures:normal;font-variant-caps:normal;font-variant-numeric:normal;font-variant-east-asian:normal;text-align:center;text-anchor:middle;fill:#c8d6e7;fill-opacity:1;stroke-width:0.264583"
         d="m 55.446767,122.75004 h -4.663272 l -0.975649,2.80292 h -2.17454 l 4.547517,-12.03852 h 1.876884 l 4.555786,12.03852 h -2.182809 z"
         id="path860" />
      <path
         inkscape:connector-curvature="0"
         d="m 69.535802,125.55296 h -2.091858 l -5.36607,-8.54106 v 8.54106 h -2.091858 v -12.03852 h 2.091858 l 5.382607,8.57414 v -8.57414 h 2.075321 z"
         style="font-style:normal;font-variant:normal;font-weight:500;font-stretch:normal;font-size:16.93329999999999913px;font-family:Roboto;-inkscape-font-specification:'Roboto Medium';font-variant-ligatures:normal;font-variant-caps:normal;font-variant-numeric:normal;font-variant-east-asian:normal;text-align:center;text-anchor:middle;fill:#c8d6e7;fill-opacity:1;stroke-width:0.264583"
         id="path862" />
      <path
         inkscape:connector-curvature="0"
         d="m 80.830182,113.51444 v 8.04497 q 0,1.91823 -1.231964,3.04271 -1.223695,1.1162 -3.265944,1.1162 -2.067053,0 -3.282481,-1.09967 -1.215427,-1.10794 -1.215427,-3.06751 v -8.0367 h 2.08359 v 8.05324 q 0,1.20716 0.611848,1.84381 0.611847,0.63666 1.80247,0.63666 2.414318,0 2.414318,-2.54661 v -7.9871 z"
         style="font-style:normal;font-variant:normal;font-weight:500;font-stretch:normal;font-size:16.93329999999999913px;font-family:Roboto;-inkscape-font-specification:'Roboto Medium';font-variant-ligatures:normal;font-variant-caps:normal;font-variant-numeric:normal;font-variant-east-asian:normal;text-align:center;text-anchor:middle;fill:#c8d6e7;fill-opacity:1;stroke-width:0.264583"
         id="path864" />
      <path
         inkscape:connector-curvature="0"
         style="font-style:normal;font-variant:normal;font-weight:500;font-stretch:normal;font-size:16.93329999999999913px;font-family:Roboto;-inkscape-font-specification:'Roboto Medium';font-variant-ligatures:normal;font-variant-caps:normal;font-variant-numeric:normal;font-variant-east-asian:normal;text-align:center;text-anchor:middle;fill:#c8d6e7;fill-opacity:1;stroke-width:0.264583"
         d="m 89.644095,122.75004 h -4.663272 l -0.975649,2.80292 h -2.17454 l 4.547517,-12.03852 h 1.876884 l 4.555785,12.03852 h -2.182808 z"
         id="path866" />
      <path
         inkscape:connector-curvature="0"
         d="m 96.275203,123.88278 h 5.465287 v 1.67018 h -7.557145 v -12.03852 h 2.091858 z"
         style="font-style:normal;font-variant:normal;font-weight:500;font-stretch:normal;font-size:16.93329999999999913px;font-family:Roboto;-inkscape-font-specification:'Roboto Medium';font-variant-ligatures:normal;font-variant-caps:normal;font-variant-numeric:normal;font-variant-east-asian:normal;text-align:center;text-anchor:middle;fill:#c8d6e7;fill-opacity:1;stroke-width:0.264583"
         id="path868" />
      <path
         inkscape:connector-curvature="0"
         style="font-style:normal;font-variant:normal;font-weight:900;font-stretch:normal;font-size:21.16669999999999874px;font-family:Roboto;-inkscape-font-specification:'Roboto Heavy';font-variant-ligatures:normal;font-variant-caps:normal;font-variant-numeric:normal;font-variant-east-asian:normal;text-align:center;text-anchor:middle;fill:#0d1424;fill-opacity:1;stroke-width:0.264583"
         d="m 52.439152,99.448097 h 2.294437 q 1.033531,0 1.550296,-0.537436 0.5271,-0.547771 0.5271,-1.519289 0,-0.971519 -0.5271,-1.51929 -0.527101,-0.558106 -1.550296,-0.558106 h -2.294437 z"
         id="path873" />
      <path
         inkscape:connector-curvature="0"
         style="font-style:normal;font-variant:normal;font-weight:500;font-stretch:normal;font-size:16.93329999999999913px;font-family:Roboto;-inkscape-font-specification:'Roboto Medium';font-variant-ligatures:normal;font-variant-caps:normal;font-variant-numeric:normal;font-variant-east-asian:normal;text-align:center;text-anchor:middle;fill:#0d1424;fill-opacity:1;stroke-width:0.264583"
         d="m 51.370538,121.06332 h 3.489186 l -1.744593,-4.994 z"
         id="path881" />
      <path
         inkscape:connector-curvature="0"
         style="font-style:normal;font-variant:normal;font-weight:500;font-stretch:normal;font-size:16.93329999999999913px;font-family:Roboto;-inkscape-font-specification:'Roboto Medium';font-variant-ligatures:normal;font-variant-caps:normal;font-variant-numeric:normal;font-variant-east-asian:normal;text-align:center;text-anchor:middle;fill:#0d1424;fill-opacity:1;stroke-width:0.264583"
         d="m 85.567866,121.06332 h 3.489186 l -1.744593,-4.994 z"
         id="path877" />
    </g>
    <circle
       clip-path="none"
       mask="none"
       r="3.3974605"
       cy="50.073692"
       cx="45.649837"
       id="path844"
       style="opacity:1;fill:#ff88a8;fill-opacity:1;stroke:none;stroke-width:3.39747;stroke-linecap:round;stroke-linejoin:round;stop-opacity:1" />
    <path
       clip-path="none"
       mask="none"
       sodipodi:nodetypes="sscsscs"
       inkscape:connector-curvature="0"
       d="m 93.214287,49.637415 c 0.104698,-2.064724 -0.987168,-3.410296 -2.475897,-3.137431 -0.958827,0.175741 -1.545016,1.068321 -1.545016,1.068321 0,0 -0.445798,-0.89258 -1.404626,-1.068321 -1.488727,-0.272865 -2.580596,1.072707 -2.475897,3.137431 0.125951,2.483858 3.950719,4.289954 3.950719,4.289954 0,0 3.824766,-1.806096 3.950717,-4.289954 z"
       style="opacity:1;fill:#ff88a8;fill-opacity:1;stroke:none;stroke-width:0.15068799999999999px;stroke-linecap:butt;stroke-linejoin:miter;stroke-opacity:1;stop-opacity:1"
       id="path851" />
  </g>
</svg>
